REM DIRINDEX 1\2,1\3,1\4,1\5
REM DIRNAME cjc044,folder01,folder02,folder03,folder04
TITLE ""
FILE "1800_102.mp3" MP3
  TRACK 01 AUDIO
    TITLE "2:cjc044_2829"
    INDEX 01 00:00:00
  TRACK 02 AUDIO
    TITLE "0:"
    INDEX 01 00:01:11
  TRACK 03 AUDIO
    TITLE "3:cjc044_2830"
    INDEX 01 00:01:66
  TRACK 04 AUDIO
    TITLE "0:"
    INDEX 01 00:03:04
  TRACK 05 AUDIO
    TITLE "4:cjc044_2831"
    INDEX 01 00:03:61
  TRACK 06 AUDIO
    TITLE "0:"
    INDEX 01 00:05:10
  TRACK 07 AUDIO
    TITLE "5:cjc044_2832"
    INDEX 01 00:05:61
  TRACK 08 AUDIO
    TITLE "0:"
    INDEX 01 00:09:32
  TRACK 09 AUDIO
    TITLE "2:cjc044_2833"
    INDEX 01 00:11:13
  TRACK 10 AUDIO
    TITLE "0:"
    INDEX 01 00:12:71
  TRACK 11 AUDIO
    TITLE "3:cjc044_2834"
    INDEX 01 00:13:53
  TRACK 12 AUDIO
    TITLE "0:"
    INDEX 01 00:15:40
  TRACK 13 AUDIO
    TITLE "4:cjc044_2835"
    INDEX 01 00:16:18
  TRACK 14 AUDIO
    TITLE "0:"
    INDEX 01 00:18:03
  TRACK 15 AUDIO
    TITLE "5:cjc044_2836"
    INDEX 01 00:18:60
  TRACK 16 AUDIO
    TITLE "0:"
    INDEX 01 00:22:30
  TRACK 17 AUDIO
    TITLE "2:cjc044_2837"
    INDEX 01 00:24:18
  TRACK 18 AUDIO
    TITLE "0:"
    INDEX 01 00:25:45
  TRACK 19 AUDIO
    TITLE "3:cjc044_2838"
    INDEX 01 00:26:22
  TRACK 20 AUDIO
    TITLE "0:"
    INDEX 01 00:27:43
  TRACK 21 AUDIO
    TITLE "4:cjc044_2839"
    INDEX 01 00:28:27
  TRACK 22 AUDIO
    TITLE "0:"
    INDEX 01 00:29:54
  TRACK 23 AUDIO
    TITLE "5:cjc044_2840"
    INDEX 01 00:30:38
  TRACK 24 AUDIO
    TITLE "0:"
    INDEX 01 00:34:53
  TRACK 25 AUDIO
    TITLE "2:cjc044_2841"
    INDEX 01 00:36:33
  TRACK 26 AUDIO
    TITLE "0:"
    INDEX 01 00:37:50
  TRACK 27 AUDIO
    TITLE "3:cjc044_2842"
    INDEX 01 00:38:35
  TRACK 28 AUDIO
    TITLE "0:"
    INDEX 01 00:39:41
  TRACK 29 AUDIO
    TITLE "4:cjc044_2843"
    INDEX 01 00:40:24
  TRACK 30 AUDIO
    TITLE "0:"
    INDEX 01 00:41:47
  TRACK 31 AUDIO
    TITLE "5:cjc044_2844"
    INDEX 01 00:42:21
  TRACK 32 AUDIO
    TITLE "0:"
    INDEX 01 00:45:06
  TRACK 33 AUDIO
    TITLE "2:cjc044_2845"
    INDEX 01 00:46:66
  TRACK 34 AUDIO
    TITLE "0:"
    INDEX 01 00:48:12
  TRACK 35 AUDIO
    TITLE "3:cjc044_2846"
    INDEX 01 00:48:69
  TRACK 36 AUDIO
    TITLE "0:"
    INDEX 01 00:49:72
  TRACK 37 AUDIO
    TITLE "4:cjc044_2847"
    INDEX 01 00:50:58
  TRACK 38 AUDIO
    TITLE "0:"
    INDEX 01 00:52:04
  TRACK 39 AUDIO
    TITLE "5:cjc044_2848"
    INDEX 01 00:52:59
  TRACK 40 AUDIO
    TITLE "0:"
    INDEX 01 00:56:04
  TRACK 41 AUDIO
    TITLE "2:cjc044_2849"
    INDEX 01 00:57:64
  TRACK 42 AUDIO
    TITLE "0:"
    INDEX 01 00:58:73
  TRACK 43 AUDIO
    TITLE "3:cjc044_2850"
    INDEX 01 00:59:61
  TRACK 44 AUDIO
    TITLE "0:"
    INDEX 01 01:01:07
  TRACK 45 AUDIO
    TITLE "4:cjc044_2851"
    INDEX 01 01:01:66
  TRACK 46 AUDIO
    TITLE "0:"
    INDEX 01 01:03:02
  TRACK 47 AUDIO
    TITLE "5:cjc044_2852"
    INDEX 01 01:03:49
  TRACK 48 AUDIO
    TITLE "0:"
    INDEX 01 01:05:36
  TRACK 49 AUDIO
    TITLE "2:cjc044_2853"
    INDEX 01 01:07:17
  TRACK 50 AUDIO
    TITLE "0:"
    INDEX 01 01:08:38
  TRACK 51 AUDIO
    TITLE "3:cjc044_2854"
    INDEX 01 01:09:16
  TRACK 52 AUDIO
    TITLE "0:"
    INDEX 01 01:10:35
  TRACK 53 AUDIO
    TITLE "4:cjc044_2855"
    INDEX 01 01:11:17
  TRACK 54 AUDIO
    TITLE "0:"
    INDEX 01 01:12:38
  TRACK 55 AUDIO
    TITLE "5:cjc044_2856"
    INDEX 01 01:13:20
  TRACK 56 AUDIO
    TITLE "0:"
    INDEX 01 01:17:08
  TRACK 57 AUDIO
    TITLE "2:cjc044_2857"
    INDEX 01 01:18:66
  TRACK 58 AUDIO
    TITLE "0:"
    INDEX 01 01:20:00
  TRACK 59 AUDIO
    TITLE "3:cjc044_2858"
    INDEX 01 01:20:57
  TRACK 60 AUDIO
    TITLE "0:"
    INDEX 01 01:21:72
  TRACK 61 AUDIO
    TITLE "4:cjc044_2859"
    INDEX 01 01:22:56
  TRACK 62 AUDIO
    TITLE "0:"
    INDEX 01 01:23:67
  TRACK 63 AUDIO
    TITLE "5:cjc044_2860"
    INDEX 01 01:24:43
  TRACK 64 AUDIO
    TITLE "0:"
    INDEX 01 01:28:10
  TRACK 65 AUDIO
    TITLE "2:cjc044_2861"
    INDEX 01 01:29:70
  TRACK 66 AUDIO
    TITLE "0:"
    INDEX 01 01:31:26
  TRACK 67 AUDIO
    TITLE "3:cjc044_2862"
    INDEX 01 01:32:12
  TRACK 68 AUDIO
    TITLE "0:"
    INDEX 01 01:33:09
  TRACK 69 AUDIO
    TITLE "4:cjc044_2863"
    INDEX 01 01:33:64
  TRACK 70 AUDIO
    TITLE "0:"
    INDEX 01 01:35:20
  TRACK 71 AUDIO
    TITLE "5:cjc044_2864"
    INDEX 01 01:36:03
  TRACK 72 AUDIO
    TITLE "0:"
    INDEX 01 01:39:37
